<?xml version="1.0" encoding="UTF-8" standalone="no"?>
<svg xmlns="http://www.w3.org/2000/svg" viewBox="0 0 650 160" width="100%" height="100%">
    <defs>
        <style>
            @import url('https://fonts.googleapis.com/css2?family=Inter:wght=700&amp;display=swap');
            .orange-color { fill: #ff7900; }
            .black-color { fill: #000000; }
            .text-main {
                font-family: 'Inter', -apple-system, BlinkMacSystemFont, "Segoe UI", Roboto, Helvetica, Arial, sans-serif;
                font-weight: 700;
                font-size: 82px;
                letter-spacing: -2px;
            }
        </style>
    </defs>
    <g transform="translate(10, 10)">
        <circle cx="80" cy="80" r="48" class="orange-color" />
        <path d="M 80 52 L 85 62 L 94 58 L 94 68 L 104 68 L 100 77 L 109 82 L 100 87 L 104 96 L 94 96 L 94 106 L 85 102 L 80 112 L 75 102 L 66 106 L 66 96 L 56 96 L 60 87 L 51 82 L 60 77 L 56 68 L 66 68 L 66 58 L 75 62 Z" class="black-color" />
        <circle cx="80" cy="80" r="13" class="orange-color" />
        <text x="160" y="111" class="text-main"><tspan class="black-color">vibe</tspan><tspan class="orange-color">cods.</tspan></text>
    </g>
</svg>
